<svg width="383" height="154" viewBox="0 0 383 154" fill="none" xmlns="http://www.w3.org/2000/svg">
<path d="M169.925 109L194.131 44.8184H207.242L231.448 109H221.821L215.861 93.6879H185.421L179.644 109H169.925ZM188.263 85.7111C192.114 85.7111 195.415 85.7111 198.165 85.7111C200.916 85.7111 203.269 85.8334 205.225 86.0779C207.181 86.2612 209.046 86.8419 210.818 87.8199C212.652 88.7979 214.241 90.4483 215.586 92.7711L200.641 52.8869L188.263 85.7111ZM255.934 62.6058C258.563 62.6058 261.13 62.942 263.636 63.6144C266.142 64.2868 268.434 65.2953 270.513 66.6401C272.591 67.9848 274.394 69.6658 275.922 71.6829C277.45 73.7 278.52 76.0534 279.131 78.7429L270.879 80.0265C268.618 73.5472 263.636 70.2465 255.934 70.1242C253.734 70.1242 251.655 70.4604 249.699 71.1328C247.743 71.8052 246.032 72.8443 244.565 74.2502C243.159 75.5949 242.028 77.2759 241.172 79.293C240.317 81.249 239.889 83.5106 239.889 86.0779C239.889 88.6451 240.286 90.9373 241.081 92.9544C241.937 94.9716 243.067 96.6525 244.473 97.9973C245.94 99.342 247.652 100.351 249.608 101.023C251.564 101.695 253.673 102.001 255.934 101.94C259.724 101.879 262.841 101.084 265.286 99.556C267.731 98.0278 269.565 95.6134 270.788 92.3126L279.131 93.5046C278.52 96.1941 277.45 98.5474 275.922 100.565C274.394 102.582 272.591 104.263 270.513 105.607C268.434 106.891 266.142 107.869 263.636 108.541C261.13 109.214 258.563 109.55 255.934 109.55C252.572 109.55 249.363 109.091 246.307 108.175C243.312 107.197 240.653 105.73 238.33 103.774C236.069 101.818 234.265 99.3726 232.921 96.4386C231.576 93.5046 230.903 90.051 230.903 86.0779C230.903 82.1047 231.576 78.6512 232.921 75.7172C234.265 72.7832 236.069 70.3382 238.33 68.3822C240.653 66.4261 243.312 64.9897 246.307 64.0728C249.363 63.0948 252.572 62.6058 255.934 62.6058ZM293.188 52.6119V44.8184H283.928V52.6119H293.188ZM284.111 63.156H293.005V109H284.111V63.156ZM298.701 75.4421C298.701 71.2856 299.679 68.1988 301.635 66.1816C303.591 64.1645 306.678 63.156 310.896 63.156H329.325V71.5912L313.83 71.6829C312.546 71.6829 311.507 71.744 310.713 71.8663C309.918 71.9885 309.276 72.2942 308.787 72.7832C308.359 73.211 308.054 73.8834 307.87 74.8003C307.748 75.7172 307.687 76.9702 307.687 78.5595V109H298.701V75.4421ZM366.694 97.7222C366.082 99.6171 365.135 101.267 363.851 102.673C362.568 104.079 361.07 105.241 359.359 106.157C357.708 107.074 355.905 107.777 353.949 108.266C351.993 108.694 350.037 108.908 348.081 108.908C345.819 108.908 343.619 108.633 341.479 108.083C339.34 107.533 337.445 106.708 335.795 105.607C334.144 104.507 332.8 103.162 331.761 101.573C330.783 99.9227 330.294 98.0584 330.294 95.9801C330.294 92.6183 331.18 90.0816 332.953 88.3701C334.786 86.5974 337.048 85.3138 339.737 84.5192C342.488 83.7246 345.422 83.2967 348.539 83.2356C351.718 83.1133 354.652 83.0216 357.341 82.9605C360.092 82.8382 362.354 82.5937 364.126 82.227C365.899 81.8602 366.755 81.035 366.694 79.7514C366.571 76.2673 365.379 73.7917 363.118 72.3247C360.917 70.8577 357.617 70.1242 353.216 70.1242C351.443 70.1242 349.762 70.2465 348.173 70.491C346.645 70.7355 345.269 71.1939 344.047 71.8663C342.885 72.5387 341.907 73.4555 341.113 74.6169C340.318 75.7783 339.799 77.2759 339.554 79.1096L331.669 78.0094C331.975 75.2587 332.8 72.9054 334.144 70.9494C335.489 68.9934 337.17 67.4347 339.187 66.2733C341.204 65.0508 343.435 64.1951 345.881 63.7061C348.326 63.156 350.771 62.8809 353.216 62.8809C355.966 62.8809 358.656 63.1865 361.284 63.7978C363.974 64.409 366.357 65.4176 368.436 66.8235C370.514 68.1682 372.164 70.002 373.387 72.3247C374.67 74.5864 375.312 77.4287 375.312 80.8517V97.5388C375.312 98.7613 375.526 99.556 375.954 99.9227C376.382 100.289 377.085 100.473 378.063 100.473H380.172V109H374.304C371.981 109 370.117 108.297 368.711 106.891C367.366 105.485 366.694 103.774 366.694 101.756V97.7222ZM339.096 95.7968C339.096 97.0193 339.401 98.089 340.012 99.0058C340.624 99.8616 341.418 100.595 342.396 101.206C343.435 101.756 344.627 102.184 345.972 102.49C347.378 102.734 348.815 102.857 350.282 102.857C352.176 102.857 354.102 102.643 356.058 102.215C358.014 101.726 359.756 101.054 361.284 100.198C362.873 99.342 364.157 98.3029 365.135 97.0804C366.174 95.7968 366.694 94.3603 366.694 92.7711V86.7197C365.41 87.4532 363.821 87.9422 361.926 88.1867C360.031 88.4312 358.044 88.584 355.966 88.6451C353.949 88.7062 351.932 88.7674 349.915 88.8285C347.898 88.8896 346.094 89.1341 344.505 89.562C342.916 89.9899 341.602 90.6928 340.563 91.6708C339.585 92.5877 339.096 93.963 339.096 95.7968Z" fill="black"/>
<path d="M14.2842 49.4305C17.6372 49.8449 20.4444 51.4305 23.2656 53.2254C23.9091 53.6264 24.5529 54.0269 25.1973 54.4265C25.5218 54.6283 25.8463 54.8301 26.1807 55.0379C28.3443 56.3599 30.5586 57.5953 32.7637 58.8445C34.1182 59.663 34.1181 59.6637 35.1104 60.6687C35.2385 62.1134 35.2387 62.1137 35.2451 63.9861C35.2477 64.3269 35.2503 64.6682 35.2529 65.0193C35.258 65.7608 35.2608 66.5024 35.2617 67.2439C35.2635 68.4211 35.2711 69.5981 35.2812 70.7752C35.3087 74.1225 35.3247 77.4698 35.3369 80.8172C35.3448 82.8644 35.3598 84.9116 35.3789 86.9588C35.3847 87.7362 35.3876 88.5143 35.3877 89.2918C35.3881 93.9989 35.425 98.1424 37.9492 102.264C39.4167 103.715 40.9862 104.665 42.7695 105.674C43.1309 105.883 43.4919 106.094 43.8643 106.309C44.6518 106.765 45.4406 107.219 46.2305 107.671C47.6024 108.458 48.9681 109.256 50.333 110.055C51.2741 110.605 52.2159 111.155 53.1572 111.704C53.6081 111.967 54.0589 112.231 54.5234 112.503C55.157 112.87 55.1575 112.87 55.8037 113.245C56.1787 113.463 56.5541 113.681 56.9404 113.906C58.9953 115.006 60.7232 115.021 63.0176 115.033C63.6544 115.04 64.2912 115.047 64.9473 115.054C66.8852 114.937 68.484 114.501 70.335 113.934C70.3927 117.778 70.437 121.622 70.4639 125.467C70.4768 127.252 70.4942 129.038 70.5225 130.824C70.5549 132.882 70.5662 134.94 70.5771 136.998C70.5899 137.631 70.603 138.265 70.6162 138.918C70.6176 143.251 69.9742 146.815 66.9688 150.068C62.8461 153.934 57.9843 154.913 52.6602 152.978C50.5425 151.986 48.5344 150.804 46.5215 149.612C45.863 149.228 45.8622 149.227 45.1904 148.836C42.6889 147.377 40.1969 145.902 37.7109 144.416C34.7249 142.635 31.7127 140.903 28.6914 139.184C24.9994 137.081 21.3271 134.95 17.6846 132.761C15.7752 131.614 13.8542 130.493 11.917 129.395C2.17355 123.857 2.17372 123.856 0.381836 118.457C0.251427 117.228 0.251132 117.227 0.242188 115.918C0.236523 115.419 0.230445 114.919 0.224609 114.405C0.222946 113.592 0.223377 113.591 0.22168 112.762C0.214292 111.898 0.214569 111.898 0.207031 111.017C0.192546 109.114 0.185171 107.211 0.179688 105.307C0.173979 103.982 0.168803 102.657 0.163086 101.332C0.153596 98.9077 0.14754 96.4835 0.144531 94.0594C0.140091 90.5019 0.122526 86.9448 0.09375 83.3875C0.06963 80.2974 0.0622605 77.2071 0.0605469 74.117C0.0575494 72.8071 0.0491874 71.4971 0.0361328 70.1873C0.0191372 68.3507 0.0209198 66.5151 0.0273438 64.6785C0.0182004 64.1414 0.00942045 63.604 0 63.0506C0.0415309 59.246 1.01005 56.6217 3.3584 53.6336C6.70555 50.4526 9.74764 49.5186 14.2842 49.4305ZM57.3154 3.87479C61.4381 0.00897396 66.2998 -0.970461 71.624 0.964632C73.7418 1.95684 75.7507 3.1393 77.7637 4.33084C78.4217 4.71454 78.4221 4.71463 79.0938 5.10623C81.5953 6.56527 84.0872 8.04007 86.5732 9.52616C89.5593 11.3073 92.5715 13.0387 95.5928 14.7576C99.2849 16.8606 102.957 18.9927 106.6 21.1824C108.509 22.3292 110.43 23.4497 112.367 24.5476C122.111 30.0863 122.111 30.0863 123.903 35.4861C124.034 36.7148 124.033 36.715 124.042 38.0242C124.048 38.5235 124.054 39.0234 124.06 39.5379C124.061 40.3508 124.061 40.351 124.062 41.1805C124.07 42.0437 124.071 42.0439 124.078 42.9246C124.093 44.8282 124.099 46.7319 124.104 48.6355C124.11 49.9604 124.116 51.2853 124.122 52.6101C124.132 55.0342 124.137 57.4586 124.14 59.8826C124.144 63.44 124.162 66.9972 124.19 70.5545C124.215 73.6446 124.222 76.7348 124.224 79.825C124.227 81.1349 124.235 82.4448 124.248 83.7547C124.265 85.5913 124.263 87.4278 124.257 89.2644C124.266 89.8013 124.275 90.3382 124.284 90.8914C124.243 94.696 123.274 97.3212 120.926 100.309C117.579 103.49 114.536 104.423 110 104.512C106.647 104.097 103.841 102.512 101.02 100.718C100.376 100.316 99.7314 99.9151 99.0869 99.5154C98.7624 99.3137 98.4379 99.1119 98.1035 98.9041C95.94 97.5821 93.7265 96.3466 91.5215 95.0974C90.1668 94.2789 90.1661 94.2792 89.1738 93.2742C89.0457 91.8294 89.0465 91.8289 89.04 89.9568C89.0374 89.616 89.0349 89.2748 89.0322 88.9236C89.0271 88.1819 89.0234 87.4397 89.0225 86.698C89.0206 85.521 89.013 84.3437 89.0029 83.1668C88.9754 79.8196 88.9605 76.472 88.9482 73.1248C88.9403 71.0775 88.9253 69.0304 88.9062 66.9832C88.9005 66.2059 88.8975 65.4285 88.8975 64.6512C88.897 59.9438 88.8593 55.7996 86.335 51.6775C84.8676 50.227 83.2987 49.2765 81.5156 48.2683C81.1542 48.0588 80.7923 47.8494 80.4199 47.6336C79.6324 47.1777 78.8436 46.724 78.0537 46.2722C76.6818 45.485 75.3161 44.6872 73.9512 43.8875C73.0101 43.3377 72.0692 42.7874 71.1279 42.2381C70.6768 41.9744 70.2255 41.7109 69.7607 41.4392C69.1271 41.072 69.127 41.0717 68.4805 40.6971C68.1055 40.4791 67.7301 40.2615 67.3438 40.0369C65.289 38.9368 63.5618 38.9205 61.2676 38.909C60.6306 38.9018 59.9932 38.8948 59.3369 38.8875C57.3989 39.0047 55.8002 39.4416 53.9492 40.0086C53.8915 36.1644 53.8471 32.3199 53.8203 28.4754C53.8074 26.6897 53.79 24.9044 53.7617 23.1189C53.7293 21.0607 53.7179 19.0026 53.707 16.9441C53.6942 16.3106 53.6812 15.6769 53.668 15.0242C53.6666 10.6909 54.3102 7.12782 57.3154 3.87479Z" fill="url(#paint0_linear_8_22)"/>
<defs>
<linearGradient id="paint0_linear_8_22" x1="120" y1="21.9998" x2="-11.5" y2="125.5" gradientUnits="userSpaceOnUse">
<stop stop-color="#35F2FF"/>
<stop offset="0.432692" stop-color="#578BFB"/>
<stop offset="0.6875" stop-color="#0051FF"/>
<stop offset="1" stop-color="#ED94FF"/>
</linearGradient>
</defs>
</svg>
